<?xml version="1.0" encoding="UTF-8" standalone="no"?> <!-- Created with Vectornator for iOS (http://vectornator.io/) --><!DOCTYPE svg PUBLIC "-//W3C//DTD SVG 1.1//EN" "http://www.w3.org/Graphics/SVG/1.1/DTD/svg11.dtd">
<svg style="fill-rule:nonzero;clip-rule:evenodd;stroke-linecap:round;stroke-linejoin:round;" xmlns:vectornator="http://vectornator.io" xmlns:xlink="http://www.w3.org/1999/xlink" xmlns="http://www.w3.org/2000/svg" xml:space="preserve" version="1.1" viewBox="0 0 1024 1024">
<metadata>
<vectornator:setting key="DimensionsVisible" value="1"/>
<vectornator:setting key="PencilOnly" value="0"/>
<vectornator:setting key="SnapToPoints" value="0"/>
<vectornator:setting key="OutlineMode" value="0"/>
<vectornator:setting key="CMYKEnabledKey" value="0"/>
<vectornator:setting key="RulersVisible" value="1"/>
<vectornator:setting key="SnapToEdges" value="0"/>
<vectornator:setting key="GuidesVisible" value="1"/>
<vectornator:setting key="DisplayWhiteBackground" value="0"/>
<vectornator:setting key="doHistoryDisabled" value="0"/>
<vectornator:setting key="SnapToGuides" value="1"/>
<vectornator:setting key="TimeLapseWatermarkDisabled" value="0"/>
<vectornator:setting key="Units" value="Pixels"/>
<vectornator:setting key="DynamicGuides" value="0"/>
<vectornator:setting key="IsolateActiveLayer" value="0"/>
<vectornator:setting key="SnapToGrid" value="0"/>
</metadata>
<defs/>
<g id="图层 1" vectornator:layerName="图层 1">
<path stroke="#000000" stroke-width="2" d="M-93.6844-71.2376L1111.32-71.2376L1111.32+1065.76L-93.6844+1065.76L-93.6844-71.2376Z" fill="#f578a7" stroke-linecap="butt" opacity="1" stroke-linejoin="miter"/>
<path d="M633.279+315.14C557.398+275.821+463.416+304.895+423.733+379.965C384.05+455.034+413.488+548.059+489.369+587.378C495.79+590.705+502.428+593.566+509.167+595.96C484.184+628.908+461.168+645.479+460.934+645.646L441.164+659.448L463.442+695.556L480.814+692.535C486.574+691.532+622.907+666.34+698.916+522.553C738.599+447.483+709.161+354.459+633.279+315.14Z" opacity="1" fill="#000000"/>
<path d="M614.035+305.106C535.068+260.019+435.029+281.253+390.981+352.449C346.934+423.646+375.332+518.212+454.299+563.299C460.981+567.114+467.905+570.485+474.95+573.401C447.631+604.04+422.86+618.605+422.608+618.752L401.343+630.836L423.82+668.418L442.244+666.825C448.353+666.295+592.985+652.325+677.353+515.956C721.4+444.759+693.002+350.193+614.035+305.106Z" opacity="1" fill="#43afde"/>
</g>
</svg>
